<?xml version="1.0" encoding="UTF-8"?>
<svg width="112px" height="112px" viewBox="0 0 112 112" version="1.1" xmlns="http://www.w3.org/2000/svg" xmlns:xlink="http://www.w3.org/1999/xlink">
    <title>Artboard</title>
    <g id="Artboard" stroke="none" stroke-width="1" fill="none" fill-rule="evenodd">
        <path d="M43.9253669,47.9603306 L43.9253669,47.9673306 C45.4089304,47.1111425 47.0944002,46.6587672 48.8010888,46.6587672 L48.9264327,46.6587672 L49.1040578,46.6622672 C49.2224016,46.6655485 49.3372454,46.6690485 49.455808,46.6795485 L49.5428706,46.6865485 C50.9498715,46.7908923 52.2870911,47.187705 53.533967,47.8734868 C53.6593108,47.9430493 53.7811546,48.0126118 53.9029985,48.0856744 C53.997061,48.1449557 54.0911236,48.2040182 54.1886861,48.2667995 L54.2792487,48.3258621 C55.0488117,48.8445186 55.7418122,49.4745191 56.3547501,50.2123633 C56.4383126,50.3132071 56.5183752,50.4142697 56.6159377,50.5428948 L56.664719,50.6056761 C56.7275003,50.6892386 56.7900629,50.7760824 56.8493441,50.863145 L56.957188,51.0197701 C57.0059693,51.0928326 57.0512505,51.1658952 57.0965318,51.2391765 C57.1348131,51.301739 57.1730944,51.3643016 57.2115944,51.4270828 L57.2776569,51.5384267 C58.1342825,53.0176151 58.5870953,54.70921 58.5870953,56.4215861 L58.5835953,56.4215861 C58.5835953,58.1374623 58.1310012,59.8255571 57.2741569,61.3047456 L57.1245318,61.5589333 C57.0617505,61.6597771 56.9989692,61.7573397 56.9364067,61.8546835 L56.8876254,61.9279648 C56.0935624,63.093903 55.083593,64.0509349 53.8612172,64.7887792 C53.7393733,64.8620605 53.6175295,64.931623 53.4919669,65.0011856 C53.3946231,65.0569668 53.2935606,65.1055294 53.192498,65.1578107 L53.0951542,65.2065919 C52.2593099,65.613686 51.3676843,65.8991549 50.4237774,66.05928 C50.2949336,66.0800613 50.1660897,66.0975613 50.0372459,66.1150613 L49.9294021,66.1288425 C49.8248395,66.1393426 49.7204957,66.1498426 49.6124331,66.1601238 C49.5496518,66.1636238 49.4870893,66.1706238 49.424308,66.1741238 C49.3372454,66.1811238 49.2536829,66.1846238 49.1666203,66.1846238 C49.0935578,66.1846238 49.0204952,66.1881238 48.9472139,66.1916238 L48.8148701,66.1916238 L48.8078701,66.1916238 C47.0979002,66.1916238 45.4124304,65.7390298 43.9288669,64.8828417 L34.8879234,59.668932 L16.7992771,70.1245327 L16.792299,90.9904527 L34.8809234,101.428553 L52.9765916,90.9869527 L52.9765916,80.5488521 C52.9765916,78.8329759 53.4294044,77.1448811 54.28603,75.6656926 L54.4358738,75.4115049 C54.4984363,75.3106611 54.5612176,75.2130985 54.6239989,75.1157547 L54.6725615,75.0424734 C55.4666245,73.8765352 56.4765939,72.9195033 57.6989697,72.181659 C57.8210323,72.1083777 57.9428761,72.0388152 58.06822,71.9692526 C58.1657825,71.9169714 58.2633451,71.8649088 58.3676889,71.8126275 L58.4652515,71.7638463 C59.3010958,71.3567522 60.1927214,71.0712833 61.1364095,70.9111582 C61.2652533,70.8903769 61.3940971,70.8728769 61.522941,70.8553769 L61.6310036,70.8415957 C61.7353474,70.8310956 61.8399099,70.8205956 61.9512538,70.8103144 L62.1358789,70.7963144 C62.2229414,70.7893144 62.306504,70.7858144 62.3935666,70.7858144 C62.4668479,70.7858144 62.5399104,70.7823144 62.612973,70.7788144 L62.7453168,70.7788144 L62.7523168,70.7788144 C64.4622867,70.7788144 66.1479753,71.2314084 67.6315388,72.0875965 L76.6757635,77.3015062 L94.7714317,66.8599055 L94.7644317,45.9869855 L76.6792635,35.5453849 L67.6350388,40.7730758 L67.6280388,40.7590758 C66.1409753,41.6152639 64.4587867,42.0573579 62.7383168,42.0678579 L62.623473,42.0678579 L62.4423478,42.0643579 C62.324004,42.0608579 62.2089414,42.0573579 62.0905976,42.0468579 L62.003535,42.0400767 C60.5965341,41.9355141 59.2593145,41.5387013 58.0124387,40.8531384 C57.8870948,40.7835758 57.765251,40.7140133 57.6434072,40.640732 C57.5458446,40.5816694 57.451782,40.5188881 57.3577195,40.4598256 L57.2671569,40.4007631 C56.4975939,39.8821065 55.8045935,39.2521061 55.1916556,38.5142618 C55.108093,38.4131993 55.0278117,38.3123554 54.9304679,38.1835116 L54.8816866,38.1209491 C54.8189053,38.0373865 54.7563428,37.950324 54.6970615,37.8632614 L54.5889989,37.7066363 C54.5404364,37.6335737 54.4951551,37.5605112 54.4498738,37.4874486 C54.4113738,37.4248861 54.3695925,37.3621048 54.3313112,37.2960423 L54.2687487,37.1881985 C53.4119044,35.7087912 52.9593103,34.0174151 52.9593103,32.3048202 L52.9558103,32.3048202 L52.9558103,21.8702196 L34.9542047,11.4772909 L34.8671421,11.4285533 L16.7783865,21.8841321 L16.7714083,42.7499209 L34.8601421,53.1882403 L43.9078669,47.9673306 L43.9253669,47.9603306 Z" id="Path" fill="#000000" fill-rule="nonzero"></path>
    </g>
</svg>